<svg width="48" height="48" viewBox="0 0 48 48" fill="none" xmlns="http://www.w3.org/2000/svg">
<path d="M41.894 16.61C41.8738 15.0953 41.5903 13.5956 41.056 12.178C40.5927 10.9823 39.8851 9.8964 38.9784 8.98967C38.0716 8.08293 36.9857 7.37531 35.79 6.91201C34.3907 6.38672 32.9124 6.10269 31.418 6.07201C29.494 5.98601 28.884 5.96201 24 5.96201C19.116 5.96201 18.49 5.96201 16.58 6.07201C15.0863 6.10291 13.6087 6.38694 12.21 6.91201C11.0141 7.37498 9.92806 8.08249 9.02128 8.98927C8.11451 9.89605 7.407 10.9821 6.94402 12.178C6.41768 13.5763 6.13426 15.0542 6.10602 16.548C6.02002 18.474 5.99402 19.084 5.99402 23.968C5.99402 28.852 5.99402 29.476 6.10602 31.388C6.13602 32.884 6.41802 34.36 6.94402 35.762C7.40777 36.9575 8.11581 38.0432 9.02289 38.9496C9.92997 39.8559 11.0161 40.5632 12.212 41.026C13.6069 41.5724 15.0848 41.8768 16.582 41.926C18.508 42.012 19.118 42.038 24.002 42.038C28.886 42.038 29.512 42.038 31.422 41.926C32.9163 41.8966 34.3947 41.6132 35.794 41.088C36.9894 40.6242 38.075 39.9164 38.9817 39.0097C39.8884 38.103 40.5962 37.0174 41.06 35.822C41.586 34.422 41.868 32.946 41.898 31.448C41.984 29.524 42.01 28.914 42.01 24.028C42.006 19.144 42.006 18.524 41.894 16.61ZM23.988 33.204C18.88 33.204 14.742 29.066 14.742 23.958C14.742 18.85 18.88 14.712 23.988 14.712C26.4402 14.712 28.792 15.6861 30.5259 17.4201C32.2599 19.1541 33.234 21.5058 33.234 23.958C33.234 26.4102 32.2599 28.762 30.5259 30.4959C28.792 32.2299 26.4402 33.204 23.988 33.204ZM33.602 16.526C33.3188 16.5263 33.0383 16.4707 32.7766 16.3624C32.5149 16.2542 32.2772 16.0954 32.0769 15.8951C31.8767 15.6949 31.7179 15.4571 31.6096 15.1954C31.5013 14.9337 31.4458 14.6532 31.446 14.37C31.446 14.087 31.5018 13.8068 31.6101 13.5453C31.7184 13.2839 31.8771 13.0463 32.0772 12.8462C32.2773 12.6461 32.5149 12.4873 32.7763 12.379C33.0378 12.2707 33.318 12.215 33.601 12.215C33.884 12.215 34.1642 12.2707 34.4257 12.379C34.6872 12.4873 34.9247 12.6461 35.1248 12.8462C35.3249 13.0463 35.4837 13.2839 35.592 13.5453C35.7003 13.8068 35.756 14.087 35.756 14.37C35.756 15.562 34.792 16.526 33.602 16.526Z" fill="black"/>
<path d="M23.9881 29.964C27.3051 29.964 29.9941 27.275 29.9941 23.958C29.9941 20.641 27.3051 17.952 23.9881 17.952C20.671 17.952 17.9821 20.641 17.9821 23.958C17.9821 27.275 20.671 29.964 23.9881 29.964Z" fill="black"/>
</svg>
