<svg width="48" height="48" viewBox="0 0 48 48" fill="none" xmlns="http://www.w3.org/2000/svg">
<path d="M39.266 15.994C39.292 16.344 39.292 16.692 39.292 17.04C39.292 27.69 31.186 39.962 16.372 39.962C11.808 39.962 7.568 38.64 4 36.344C4.648 36.418 5.272 36.444 5.946 36.444C9.57199 36.4528 13.0953 35.2403 15.948 33.002C14.2668 32.9716 12.6372 32.4169 11.2865 31.4155C9.9358 30.414 8.93157 29.0158 8.414 27.416C8.912 27.49 9.412 27.54 9.936 27.54C10.658 27.54 11.384 27.44 12.058 27.266C10.2335 26.8976 8.59295 25.9087 7.41524 24.4674C6.23753 23.026 5.59539 21.2213 5.598 19.36V19.26C6.672 19.858 7.918 20.232 9.238 20.282C8.13218 19.5472 7.22544 18.55 6.59868 17.3796C5.97192 16.2091 5.64463 14.9017 5.646 13.574C5.646 12.078 6.044 10.706 6.742 9.51C8.76628 12 11.291 14.0371 14.1527 15.4893C17.0143 16.9415 20.1491 17.7764 23.354 17.94C23.23 17.34 23.154 16.718 23.154 16.094C23.1535 15.0359 23.3615 13.9881 23.7662 13.0105C24.1708 12.0328 24.7642 11.1445 25.5124 10.3964C26.2605 9.6482 27.1488 9.05482 28.1265 8.65015C29.1041 8.24549 30.1519 8.03747 31.21 8.038C33.53 8.038 35.624 9.00999 37.096 10.582C38.8995 10.2332 40.6291 9.57484 42.208 8.63599C41.6068 10.4976 40.3475 12.0762 38.666 13.076C40.2656 12.8936 41.8289 12.4729 43.304 11.828C42.2023 13.4342 40.837 14.8427 39.266 15.994Z" fill="black"/>
</svg>
